<svg width="12" height="12" viewBox="0 0 12 12" fill="#666666" xmlns="http://www.w3.org/2000/svg">
<path d="M5.99991 0.666992C4.96164 0.667859 3.9659 1.07955 3.23018 1.81216C2.49445 2.54476 2.07853 3.53874 2.07324 4.57699C2.07324 6.13366 2.94658 7.43699 3.58658 8.38699L3.70324 8.56033C4.34 9.4832 5.0231 10.3732 5.74991 11.227L6.00324 11.5237L6.25658 11.227C6.98329 10.3732 7.66639 9.48313 8.30324 8.56033L8.41991 8.38366C9.05658 7.43366 9.92991 6.13366 9.92991 4.57699C9.92462 3.53816 9.50824 2.54368 8.77179 1.81098C8.03535 1.07828 7.03875 0.666979 5.99991 0.666992ZM5.99991 6.33366C5.56743 6.33366 5.14466 6.20541 4.78506 5.96514C4.42547 5.72487 4.1452 5.38335 3.97969 4.98379C3.81419 4.58423 3.77089 4.14457 3.85526 3.72039C3.93963 3.29622 4.14789 2.9066 4.4537 2.60079C4.75951 2.29497 5.14914 2.08671 5.57331 2.00234C5.99748 1.91797 6.43715 1.96127 6.83671 2.12678C7.23627 2.29228 7.57778 2.57255 7.81806 2.93215C8.05833 3.29174 8.18658 3.71451 8.18658 4.14699C8.18658 4.72693 7.9562 5.28312 7.54612 5.6932C7.13604 6.10328 6.57985 6.33366 5.99991 6.33366Z"/>
<path d="M5.99968 5.38999C6.68636 5.38999 7.24301 4.83333 7.24301 4.14665C7.24301 3.45998 6.68636 2.90332 5.99968 2.90332C5.31301 2.90332 4.75635 3.45998 4.75635 4.14665C4.75635 4.83333 5.31301 5.38999 5.99968 5.38999Z"/>
</svg>
