<?xml version="1.0" encoding="utf-8"?>
<svg xmlns="http://www.w3.org/2000/svg" xmlns:xlink="http://www.w3.org/1999/xlink">
	<symbol fill="currentColor" viewBox="0 0 8 12" id="arrow">
		<path d="M1.29.712a.996.996 0 000 1.41l3.88 3.88-3.88 3.88a.996.996 0 101.41 1.41l4.59-4.59a.996.996 0 000-1.41L2.7.702c-.38-.38-1.02-.38-1.41.01z"/>
	</symbol>
	<symbol fill="currentColor" viewBox="0 0 14 14" id="cross">
		<path d="M13.3.709a.996.996 0 00-1.41 0L7 5.589 2.11.699A.996.996 0 10.7 2.109l4.89 4.89-4.89 4.89a.996.996 0 101.41 1.41L7 8.409l4.89 4.89a.996.996 0 101.41-1.41l-4.89-4.89 4.89-4.89c.38-.38.38-1.02 0-1.4z"/>
	</symbol>
	<symbol fill="currentColor" viewBox="0 0 12 12" id="music">
		<path d="M3.75 2.25V9.38965C3.35119 9.15014 2.82898 9 2.25 9C1.00744 9 0 9.67163 0 10.5C0 11.3284 1.00744 12 2.25 12C3.49256 12 4.5 11.3284 4.5 10.5V6L11.25 3.75V7.13965C10.8516 6.90014 10.3286 6.75 9.75 6.75C8.50781 6.75 7.5 7.42163 7.5 8.25C7.5 9.07837 8.50781 9.75 9.75 9.75C10.9922 9.75 12 9.07837 12 8.25V0L3.75 2.25ZM4.5 5.25V3.54565L11.25 1.70433V3L4.5 5.25Z"/>
	</symbol>
	<symbol fill="currentColor" viewBox="0 0 12 12" id="teacher">
		<path fill-rule="evenodd" clip-rule="evenodd" d="M5.37378 0.00726354C4.98367 0.0463143 4.64953 0.13907 4.29851 0.305754C3.95709 0.467878 3.69722 0.65047 3.43442 0.912888C3.19437 1.15256 3.02533 1.38442 2.87683 1.67765C2.7683 1.89197 2.71215 2.03638 2.65874 2.2387C2.54002 2.68832 2.52504 3.08292 2.6095 3.53582C2.78875 4.49699 3.45574 5.3153 4.39314 5.72406C4.53409 5.78553 4.70954 5.84561 4.86955 5.88719C4.96815 5.91283 5.04937 5.92573 4.99713 5.90746C4.70012 5.8036 4.56289 5.73982 4.37141 5.61666C4.032 5.39836 3.76119 5.1014 3.58028 4.7492C3.16658 3.94376 3.284 2.99793 3.88326 2.30883C3.98286 2.1943 4.10908 2.07642 4.22207 1.99238C4.31715 1.92169 4.46473 1.8242 4.47669 1.8242C4.48211 1.8242 4.50582 1.86117 4.52942 1.90637C4.57979 2.0029 4.73287 2.22467 4.81256 2.31658C4.97429 2.5031 5.20087 2.70635 5.42238 2.86359C5.91235 3.2114 6.52942 3.45227 7.08692 3.51332C7.3412 3.54118 7.70413 3.51186 7.8873 3.44866C7.91654 3.43856 7.94726 3.43031 7.95557 3.43031C7.99618 3.43031 8.01133 3.83074 7.97916 4.05339C7.88566 4.70015 7.52017 5.25849 6.94618 5.63141C6.78392 5.73683 6.55762 5.83974 6.35809 5.89882C6.23592 5.935 6.2739 5.93433 6.42475 5.89764C7.47115 5.64316 8.31075 4.88395 8.63528 3.89879C8.68997 3.73277 8.74531 3.46978 8.76446 3.28486C8.78278 3.10807 8.77268 2.70275 8.74621 2.55105C8.68405 2.19506 8.58704 1.90874 8.42971 1.61689C7.96375 0.752546 7.10191 0.16274 6.10277 0.0244384C5.9403 0.0019411 5.52471 -0.00784798 5.37378 0.00726354ZM5.03131 5.92369C5.04007 5.92707 5.05055 5.92665 5.05459 5.92276C5.05862 5.91887 5.05145 5.9161 5.03864 5.91661C5.02449 5.91717 5.02161 5.91995 5.03131 5.92369ZM3.11602 6.76066C2.09744 6.85555 1.2489 7.58933 1.04964 8.54759C1.00305 8.77166 0.999802 8.87435 1.00001 10.1168C1.00025 11.469 0.997007 11.4137 1.08637 11.5898C1.1805 11.7754 1.38034 11.9316 1.58859 11.9825C1.65242 11.998 2.13538 12.0001 5.66489 12C10.068 11.9998 9.73835 12.0054 9.89671 11.9283C10.1075 11.8257 10.2536 11.6512 10.3122 11.432C10.3406 11.3262 10.3403 8.8884 10.3119 8.6924C10.2534 8.28712 10.0847 7.91014 9.82007 7.59294C9.45285 7.15277 8.93883 6.86695 8.35051 6.77577C8.28119 6.76502 8.11088 6.75529 7.92413 6.75141L7.61318 6.74495L7.60612 6.87252C7.58814 7.19793 7.46822 7.53238 7.2674 7.81715C7.16667 7.96001 6.93286 8.18659 6.78317 8.28642C6.5563 8.43771 6.32115 8.53437 6.02987 8.59606C5.94631 8.61376 5.87675 8.61784 5.66537 8.61744C5.37424 8.61688 5.28234 8.60331 5.04008 8.52509C4.47214 8.34172 4.01636 7.89855 3.82557 7.3442C3.77116 7.18613 3.74889 7.0804 3.73146 6.89752L3.71721 6.74804L3.46719 6.74964C3.32967 6.75052 3.17165 6.75548 3.11602 6.76066Z"/>
	</symbol>
	<symbol fill="currentColor" viewBox="0 0 12 12" id="location">
		<path d="M5.99991 0.666992C4.96164 0.667859 3.9659 1.07955 3.23018 1.81216C2.49445 2.54476 2.07853 3.53874 2.07324 4.57699C2.07324 6.13366 2.94658 7.43699 3.58658 8.38699L3.70324 8.56033C4.34 9.4832 5.0231 10.3732 5.74991 11.227L6.00324 11.5237L6.25658 11.227C6.98329 10.3732 7.66639 9.48313 8.30324 8.56033L8.41991 8.38366C9.05658 7.43366 9.92991 6.13366 9.92991 4.57699C9.92462 3.53816 9.50824 2.54368 8.77179 1.81098C8.03535 1.07828 7.03875 0.666979 5.99991 0.666992ZM5.99991 6.33366C5.56743 6.33366 5.14466 6.20541 4.78506 5.96514C4.42547 5.72487 4.1452 5.38335 3.97969 4.98379C3.81419 4.58423 3.77089 4.14457 3.85526 3.72039C3.93963 3.29622 4.14789 2.9066 4.4537 2.60079C4.75951 2.29497 5.14914 2.08671 5.57331 2.00234C5.99748 1.91797 6.43715 1.96127 6.83671 2.12678C7.23627 2.29228 7.57778 2.57255 7.81806 2.93215C8.05833 3.29174 8.18658 3.71451 8.18658 4.14699C8.18658 4.72693 7.9562 5.28312 7.54612 5.6932C7.13604 6.10328 6.57985 6.33366 5.99991 6.33366Z"/>
		<path d="M6.00017 5.38999C6.68684 5.38999 7.2435 4.83333 7.2435 4.14665C7.2435 3.45998 6.68684 2.90332 6.00017 2.90332C5.3135 2.90332 4.75684 3.45998 4.75684 4.14665C4.75684 4.83333 5.3135 5.38999 6.00017 5.38999Z"/>
	</symbol>
	<symbol fill="currentColor" viewBox="0 0 24 24" id="done">
		<path d="M9.70713 15.4925C9.31661 15.883 8.68344 15.883 8.29292 15.4925L5.50002 12.6996C5.11343 12.313 4.48662 12.313 4.10002 12.6996C3.71343 13.0862 3.71343 13.713 4.10002 14.0996L8.29292 18.2925C8.68344 18.683 9.31661 18.683 9.70713 18.2925L20.3 7.69961C20.6866 7.31301 20.6866 6.68621 20.3 6.29961C19.9134 5.91301 19.2866 5.91301 18.9 6.29961L9.70713 15.4925Z"/>
	</symbol>
</svg>