<svg width="16" height="16" viewBox="0 0 16 16" fill="#666666" xmlns="http://www.w3.org/2000/svg">
<path fill-rule="evenodd" clip-rule="evenodd" d="M7.16569 0.00968472C6.64554 0.0617524 6.20003 0.185427 5.73199 0.407672C5.27678 0.623837 4.93028 0.867294 4.57987 1.21718C4.25981 1.53675 4.03442 1.84589 3.83643 2.23687C3.69171 2.52263 3.61685 2.71517 3.54564 2.98494C3.38735 3.58443 3.36738 4.11056 3.47998 4.71443C3.71898 5.99599 4.6083 7.08706 5.85818 7.63208C6.04611 7.71403 6.28004 7.79414 6.49339 7.84959C6.62485 7.88377 6.73315 7.90097 6.66349 7.87662C6.26748 7.73814 6.0845 7.65309 5.82919 7.48888C5.37665 7.19781 5.01557 6.80187 4.77435 6.33226C4.22276 5.25835 4.37932 3.99723 5.17833 3.07844C5.31114 2.92573 5.47942 2.76855 5.63008 2.65651C5.75685 2.56225 5.95363 2.43226 5.96957 2.43226C5.97679 2.43226 6.00841 2.48156 6.03987 2.54182C6.10704 2.67053 6.31114 2.96623 6.4174 3.08878C6.63303 3.33747 6.93515 3.60847 7.23049 3.81812C7.88378 4.28186 8.70654 4.60302 9.44987 4.68443C9.78892 4.72157 10.2728 4.68248 10.5171 4.59821C10.556 4.58475 10.597 4.57375 10.6081 4.57375C10.6622 4.57375 10.6824 5.10765 10.6395 5.40452C10.5149 6.26686 10.0275 7.01132 9.26223 7.50855C9.04588 7.6491 8.74414 7.78631 8.47811 7.86509C8.31522 7.91333 8.36586 7.91244 8.56698 7.86352C9.96218 7.52421 11.0817 6.51193 11.5144 5.19839C11.5873 4.97703 11.6611 4.62638 11.6866 4.37981C11.711 4.14409 11.6976 3.60367 11.6623 3.4014C11.5794 2.92674 11.45 2.54498 11.2403 2.15586C10.619 1.00339 9.46986 0.216986 8.13768 0.0325845C7.92106 0.00258813 7.36694 -0.010464 7.16569 0.00968472ZM6.70906 7.89825C6.72074 7.90277 6.73472 7.9022 6.7401 7.89701C6.74548 7.89182 6.73592 7.88813 6.71884 7.88881C6.69997 7.88956 6.69613 7.89326 6.70906 7.89825ZM4.15534 9.01421C2.79724 9.14073 1.66585 10.1191 1.40017 11.3968C1.33805 11.6955 1.33372 11.8325 1.334 13.4891C1.33432 15.292 1.32999 15.2182 1.44914 15.4531C1.57465 15.7005 1.8411 15.9088 2.11877 15.9766C2.20388 15.9974 2.84783 16.0002 7.55384 16C13.4247 15.9997 12.9851 16.0072 13.1963 15.9044C13.4773 15.7676 13.6721 15.535 13.7503 15.2427C13.7881 15.1017 13.7877 11.8512 13.7499 11.5899C13.6718 11.0495 13.4469 10.5469 13.0941 10.1239C12.6044 9.53703 11.9191 9.15594 11.1347 9.03436C11.0422 9.02003 10.8152 9.00705 10.5662 9.00188L10.1516 8.99327L10.1421 9.16336C10.1182 9.59724 9.95827 10.0432 9.69052 10.4229C9.55621 10.6134 9.24446 10.9155 9.04488 11.0486C8.74239 11.2503 8.42886 11.3792 8.04048 11.4614C7.92906 11.485 7.83631 11.4905 7.55448 11.4899C7.1663 11.4892 7.04377 11.4711 6.72076 11.3668C5.96351 11.1223 5.3558 10.5314 5.10141 9.79227C5.02887 9.5815 4.99918 9.44054 4.97593 9.19669L4.95693 8.99739L4.62356 8.99952C4.44021 9.00069 4.22952 9.0073 4.15534 9.01421Z"/>
</svg>
